<?xml version="1.0" encoding="utf-8"?>
<!-- Generator: Adobe Illustrator 21.1.0, SVG Export Plug-In . SVG Version: 6.00 Build 0)  -->
<svg version="1.1" id="Layer_1" xmlns="http://www.w3.org/2000/svg" xmlns:xlink="http://www.w3.org/1999/xlink" x="0px" y="0px"
	 viewBox="0 0 441.6 163.6" style="enable-background:new 0 0 441.6 163.6;" xml:space="preserve">
<style type="text/css">
	.st0{fill:#C9B07F;}
	.st1{fill:#10E0B9;}
	.st2{fill:none;}
</style>
<title>Peta_logo</title>
<g id="Layer_2">
	<g id="Layer_1-2">
		<path class="st0" d="M73,78.8l14.6,36.6l14.8-36.6h8.7l-23.6,56.7L64.3,78.8H73z"/>
		<path class="st0" d="M162,86.3h-21.1V99h20.5v7.5h-20.5v17.6H162v7.5h-29.1V78.8H162V86.3z"/>
		<path class="st0" d="M214.8,104.1h21.8v1.7c0.1,3.6-0.4,7.1-1.4,10.5c-1,2.9-2.5,5.6-4.6,7.9c-4.7,5.4-11.5,8.5-18.7,8.3
			c-7.2,0.1-14.1-2.8-19-8c-10.6-10.8-10.5-28.1,0.1-38.8c8.2-8.1,20.6-10.3,31.1-5.5c3.9,2,7.3,4.8,10.1,8.2l-5.6,5.5
			c-4.3-5.8-9.6-8.7-15.8-8.7c-5.3-0.1-10.3,2-14,5.8c-3.8,3.7-5.8,8.9-5.7,14.2c-0.2,5.5,2.2,10.9,6.3,14.5
			c3.9,3.5,8.2,5.3,12.8,5.3c3.9,0,7.6-1.4,10.6-4c3-2.4,4.8-5.8,5.2-9.6h-13.2V104.1z"/>
		<path class="st0" d="M292.8,118.8h-22.6l-5.9,12.8h-8.6l26.1-56.1l25.2,56.1h-8.7L292.8,118.8z M289.5,111.3l-7.8-17.9l-8.2,17.9
			H289.5z"/>
		<path class="st0" d="M328.8,131.6V75.2l38.5,40.3V78.8h8v56l-38.5-40.2v36.9H328.8z"/>
		<path class="st1" d="M162.4,34.9h3l6.8,19.1h-3.9l-2-6h-5.7l-1.9,6h-3.2L162.4,34.9z M161.3,45.6h4.4l-2.1-6.9L161.3,45.6z"/>
		<path class="st1" d="M190.3,46.6V54h-3.4V34.9h5.4c1.1,0,2.1,0.1,3.2,0.4c0.8,0.2,1.6,0.6,2.2,1.2c0.6,0.5,1,1.1,1.3,1.8
			c0.3,0.7,0.4,1.5,0.4,2.3c0,0.4,0,0.7-0.1,1.1c-0.2,1-0.6,1.9-1.3,2.6c-0.4,0.5-0.9,0.9-1.4,1.2c-0.6,0.4-1.3,0.7-2,0.8
			c-0.9,0.2-1.8,0.3-2.7,0.3L190.3,46.6z M190.3,44.2h1.7c0.6,0,1.1-0.1,1.7-0.2c0.5-0.1,0.9-0.4,1.3-0.7c0.4-0.3,0.7-0.7,0.9-1.1
			c0.2-0.5,0.3-1,0.3-1.5c0-0.4-0.1-0.9-0.2-1.3c-0.1-0.4-0.4-0.7-0.7-1c-0.4-0.3-0.8-0.6-1.2-0.7c-0.6-0.2-1.3-0.3-1.9-0.3h-1.8
			V44.2z"/>
		<path class="st1" d="M218.1,46.6V54h-3.4V34.9h5.4c1.1,0,2.1,0.1,3.2,0.4c0.8,0.2,1.6,0.6,2.2,1.2c0.6,0.5,1,1.1,1.3,1.8
			c0.3,0.7,0.4,1.5,0.4,2.3c0,1.4-0.5,2.7-1.4,3.8c-0.4,0.5-0.9,0.9-1.4,1.2c-0.6,0.4-1.3,0.7-2,0.8c-0.9,0.2-1.8,0.3-2.7,0.3
			L218.1,46.6z M218.1,44.2h1.7c0.6,0,1.1-0.1,1.7-0.2c0.5-0.1,0.9-0.4,1.3-0.7c0.4-0.3,0.7-0.7,0.9-1.1c0.2-0.5,0.3-1,0.3-1.5
			c0-0.4-0.1-0.9-0.2-1.3c-0.1-0.4-0.4-0.7-0.7-1c-0.4-0.3-0.8-0.6-1.2-0.7c-0.6-0.2-1.3-0.3-1.9-0.3h-1.8L218.1,44.2z"/>
		<path class="st1" d="M246,54h-3.3V34.9h5.4c1.1,0,2.1,0.1,3.2,0.4c0.8,0.2,1.5,0.5,2.2,1c0.6,0.5,1,1,1.3,1.7
			c0.3,0.7,0.4,1.5,0.4,2.2c0,0.6-0.1,1.1-0.2,1.7c-0.1,0.6-0.4,1.1-0.7,1.6c-0.4,0.5-0.8,1-1.4,1.4c-0.7,0.5-1.4,0.8-2.2,1l5.8,8.1
			h-3.8l-5.1-7.8h-0.7c-0.3,0-0.6,0-0.9-0.1L246,54z M246,43.6c0.2,0,0.5,0,0.8,0.1h0.8c0.6,0,1.2-0.1,1.8-0.2
			c0.5-0.1,0.9-0.4,1.3-0.7c0.4-0.3,0.6-0.7,0.8-1.1c0.2-0.4,0.3-0.9,0.3-1.4c0-0.5-0.1-0.9-0.2-1.3c-0.1-0.4-0.4-0.7-0.7-0.9
			c-0.4-0.3-0.8-0.4-1.3-0.5c-0.7-0.1-1.4-0.2-2.1-0.2H246V43.6z"/>
		<path class="st1" d="M288.3,44.1c0,0.9-0.1,1.9-0.3,2.8c-0.2,0.9-0.5,1.7-0.8,2.5c-0.4,0.7-0.8,1.5-1.3,2.1
			c-0.5,0.6-1.1,1.1-1.7,1.6c-1.3,0.9-2.9,1.4-4.6,1.4c-1.3,0-2.5-0.2-3.7-0.7c-1.1-0.5-2-1.2-2.7-2.1c-0.8-0.9-1.3-2-1.7-3.2
			c-0.4-1.3-0.6-2.7-0.6-4.1c0-1.4,0.2-2.7,0.6-4c0.4-1.2,1-2.2,1.8-3.1c0.8-0.9,1.7-1.5,2.8-2c1.2-0.5,2.4-0.8,3.7-0.7
			c1.2,0,2.4,0.2,3.5,0.7c1,0.4,1.9,1.1,2.7,1.9c0.8,0.9,1.4,1.9,1.8,3C288.1,41.3,288.3,42.7,288.3,44.1z M284.8,44.4
			c0-1-0.1-2-0.4-3c-0.2-0.8-0.5-1.6-1-2.3c-0.4-0.6-1-1.1-1.6-1.5c-0.7-0.4-1.4-0.5-2.1-0.5c-0.7,0-1.5,0.2-2.1,0.5
			c-0.7,0.3-1.2,0.8-1.7,1.4c-0.5,0.7-0.8,1.4-1.1,2.2c-0.3,1-0.4,1.9-0.4,2.9c0,1,0.1,2,0.3,3c0.2,0.9,0.5,1.7,1,2.4
			c0.4,0.7,0.9,1.2,1.6,1.6c0.7,0.4,1.4,0.6,2.2,0.6c0.8,0,1.6-0.2,2.2-0.6c0.7-0.4,1.2-1,1.7-1.7c0.5-0.7,0.8-1.5,1-2.4
			C284.6,46.2,284.8,45.3,284.8,44.4L284.8,44.4z"/>
		<path class="st1" d="M315,34.9h3.9L312.1,54H309l-6.3-19.1h3.7l4.3,14.3L315,34.9z"/>
		<path class="st1" d="M344.5,37.4H337v5.2h6v2.5h-6v6.5h7.8V54h-11.2V34.9h10.8V37.4z"/>
		<path class="st1" d="M365,34.9c1.5,0,3,0.2,4.5,0.7c1.1,0.4,2.2,1.1,3,2c0.8,0.9,1.4,1.9,1.7,3c0.4,1.2,0.5,2.4,0.5,3.6
			c0,0.9-0.1,1.7-0.2,2.6c-0.1,0.8-0.4,1.6-0.7,2.3c-0.3,0.7-0.7,1.4-1.2,2c-0.5,0.6-1.2,1.1-1.9,1.6c-0.8,0.5-1.6,0.8-2.5,1
			c-1.1,0.3-2.2,0.4-3.2,0.4h-4.7V34.9H365z M363.5,37.4v14.2h1c0.9,0,1.8-0.1,2.6-0.5c0.8-0.3,1.5-0.8,2.1-1.4
			c0.6-0.7,1.1-1.5,1.4-2.3c0.4-1.1,0.5-2.2,0.5-3.3c0-0.9-0.1-1.7-0.3-2.5c-0.2-0.8-0.6-1.5-1.1-2.2c-0.5-0.7-1.2-1.2-2-1.5
			c-0.9-0.4-2-0.6-3-0.6L363.5,37.4z"/>
		<path class="st0" d="M441.6,82.7L441.6,82.7c-9.8,3.3-9.9,7.8-10.6,19.3v42.2c-0.3,21.2-22.8,19.4-22.8,19.4
			c16.8-7.3,15.4-15.6,15.4-15.6l0.1-49.1c-0.5-9,5.4-15.5,13.5-16.1c-8.1-0.9-14-7.1-13.5-16.1l-0.1-49.1c0,0,1.4-8.3-15.4-15.6
			c0,0,22.5-1.9,22.8,19.3v42.2C431.8,74.8,431.8,79.4,441.6,82.7L441.6,82.7z"/>
		<path class="st0" d="M0,80.9L0,80.9c9.8-3.3,9.9-7.8,10.6-19.3V19.4C11-1.8,33.5,0,33.5,0C16.7,7.3,18.1,15.7,18.1,15.7L18,64.8
			c0.5,9-5.4,15.5-13.4,16.1C12.6,81.8,18.5,88,18,97l0.1,49.1c0,0-1.4,8.3,15.4,15.6c0,0-22.5,1.9-22.8-19.3v-42.2
			C9.9,88.8,9.8,84.2,0,80.9L0,80.9z"/>
		<polygon class="st2" points="63.5,14.3 124.8,14.3 124.8,75.6 63.5,75.6 63.5,14.3 		"/>
		<polygon class="st1" points="97.9,38.9 101.9,38.9 97.6,54.7 102.5,54.7 106.9,38.9 111.3,38.9 112.5,34.5 99.1,34.6 97.9,38.9 		
			"/>
		<path class="st1" d="M95.2,34.8c-1.8-0.6-3.7-0.3-5.2,0.7c-1.6,1-2.9,2.3-4,3.8c-2.2,3-3.5,6.6-3.6,10.3c0,1.1,0.2,2.3,0.6,3.3
			c0.4,1,1.2,1.8,2.2,2.3c1.7,0.4,3.5,0,4.9-1.1c1.4-1,2.6-2.3,3.5-3.7c0.3-0.5,0.6-1.1,0.6-1.1c-0.1-0.1-0.3-0.2-0.5-0.2
			c-0.4,0.6-0.9,1.2-1.4,1.8c-0.6,0.6-1.4,1.1-2.2,1.5c-0.8,0.4-1.7,0.5-2.6,0.3c-0.9-0.4-1.6-1.3-1.8-2.3c-0.2-1-0.3-2.1-0.1-3.1
			c0.1-0.8,0.3-1.6,0.5-2.4l6.1-1.8c1.6-0.5,3-1.5,4-2.9c0.4-0.6,0.6-1.3,0.8-2.1C97.5,36.8,96.7,35.3,95.2,34.8L95.2,34.8z
			 M90.2,36.9c1-1.4,2-1.9,3.1-1.7c1.6,0.7,1.9,2,1.2,3.7c-0.9,1.8-2.5,3.2-4.4,3.9c-1,0.4-2.1,0.7-3.1,0.9c-0.1,0-0.1,0,0-0.1
			c0.3-0.8,0.6-1.6,0.9-2.4C88.4,39.7,89.2,38.3,90.2,36.9L90.2,36.9z"/>
		<path class="st1" d="M113.2,51.4h4.5v3.3h4.4V34.5l-5.7,0l-9.7,20.2h5L113.2,51.4L113.2,51.4z M117.7,41.6L117.7,41.6v5.8H115
			L117.7,41.6L117.7,41.6z"/>
		<path class="st1" d="M83.2,40.8c0.2-2.3-0.2-3.9-1.2-4.8c-0.9-0.8-2.1-1.3-3.3-1.4l-7.1-0.1l-5.4,20.2h4.5l2.2-7.8l-0.2,1
			c1.3,0.1,2.6,0.1,3.9,0c1.6-0.2,3-0.8,4.2-1.8C82.2,44.7,83.1,42.8,83.2,40.8L83.2,40.8z M76.6,38.6c0.6,0,1.1,0.1,1.7,0.3
			c0.4,0.6,0.4,1.3,0.2,1.9c-0.1,0.8-0.5,1.6-1.1,2.2c-0.7,0.6-1.5,1-2.4,1l-1.2,0l1.4-5.2L76.6,38.6L76.6,38.6z"/>
	</g>
</g>
</svg>
