<?xml version="1.0" encoding="utf-8"?>
<!-- Generator: Adobe Illustrator 21.1.0, SVG Export Plug-In . SVG Version: 6.00 Build 0)  -->
<svg version="1.1" id="Layer_1" xmlns="http://www.w3.org/2000/svg" xmlns:xlink="http://www.w3.org/1999/xlink" x="0px" y="0px"
	 viewBox="0 0 590 91.4" style="enable-background:new 0 0 590 91.4;" xml:space="preserve">
<style type="text/css">
	.st0{fill:#C9B07F;}
</style>
<g>
	<g>
		<g>
			<rect class="st0" width="74" height="7"/>
		</g>
		<g>
			<rect x="33" y="3" class="st0" width="7" height="46"/>
		</g>
	</g>
	<g>
		<g>
			<rect x="119" class="st0" width="7" height="49"/>
		</g>
		<g>
			<rect x="192" y="42" class="st0" width="7" height="49"/>
		</g>
		<g>
			<rect x="126" y="42" class="st0" width="68" height="7"/>
		</g>
	</g>
	<g>
		<rect x="351" class="st0" width="7" height="91"/>
	</g>
	<g>
		<g>
			<rect x="521" class="st0" width="7" height="49"/>
		</g>
		<g>
			<rect x="522" class="st0" width="68" height="7"/>
		</g>
		<g>
			<rect x="522" y="42" class="st0" width="41" height="7"/>
		</g>
	</g>
	<g>
		<g>
			
				<rect x="281.6" y="42.7" transform="matrix(0.8994 -0.437 0.437 0.8994 -0.8756 131.35)" class="st0" width="6.8" height="49.7"/>
		</g>
		<g>
			<g>
				<g>
					<path class="st0" d="M283.6,0H257v7h27.2c8.7,0,15.8,7,15.8,15.6v4.8c0,8.6-7,15.6-15.6,15.6H244v6h39.6
						c12.4,0,22.4-9.9,22.4-22.2v-4.5C306,10,296,0,283.6,0z"/>
				</g>
			</g>
		</g>
	</g>
	<g>
		<g>
			<g>
				<g>
					<g>
						<line class="st0" x1="403" y1="0" x2="403" y2="0"/>
					</g>
				</g>
				<g>
					<g>
						<polygon class="st0" points="442,82.9 442,82.9 403.2,0 411.3,0 446,74.3 450,82.8 446,91.4 						"/>
					</g>
				</g>
			</g>
			<g>
				<g>
					<g>
						<polygon class="st0" points="469,42 450,82.7 446,91.3 442,82.8 442,82.8 446,74.2 461.1,42 						"/>
					</g>
				</g>
			</g>
			<g>
				<g>
					<g>
						<line class="st0" x1="403" y1="0" x2="403" y2="0"/>
					</g>
				</g>
			</g>
			<g>
				<g>
					<g>
						<line class="st0" x1="403" y1="0" x2="403" y2="0"/>
					</g>
				</g>
				<g>
					<g>
						<polygon class="st0" points="442,82.9 442,82.9 403.2,0 						"/>
					</g>
				</g>
			</g>
		</g>
		<g>
			<g>
				<rect x="403" y="42" class="st0" width="74" height="7"/>
			</g>
		</g>
	</g>
</g>
</svg>
