<?xml version="1.0" encoding="utf-8"?>
<!-- Generator: Adobe Illustrator 21.1.0, SVG Export Plug-In . SVG Version: 6.00 Build 0)  -->
<svg version="1.1" id="Layer_1" xmlns="http://www.w3.org/2000/svg" xmlns:xlink="http://www.w3.org/1999/xlink" x="0px" y="0px"
	 viewBox="0 0 681 200" style="enable-background:new 0 0 681 200;" xml:space="preserve">
<style type="text/css">
	.st0{fill:#C9B07F;}
</style>
<g>
	<g>
		<rect x="44.5" y="53" class="st0" width="74" height="7"/>
	</g>
	<g>
		<rect x="77.5" y="56" class="st0" width="7" height="46"/>
	</g>
</g>
<g>
	<g>
		<rect x="163.5" y="53" class="st0" width="7" height="49"/>
	</g>
	<g>
		<rect x="236.5" y="95" class="st0" width="7" height="49"/>
	</g>
	<g>
		<rect x="170.5" y="95" class="st0" width="68" height="7"/>
	</g>
</g>
<g>
	<rect x="395.5" y="53" class="st0" width="7" height="91"/>
</g>
<g>
	<g>
		<rect x="565.5" y="53" class="st0" width="7" height="49"/>
	</g>
	<g>
		<rect x="566.5" y="53" class="st0" width="68" height="7"/>
	</g>
	<g>
		<rect x="566.5" y="95" class="st0" width="41" height="7"/>
	</g>
</g>
<g>
	<g>
		
			<rect x="326.1" y="95.7" transform="matrix(0.8994 -0.437 0.437 0.8994 -19.5634 156.1267)" class="st0" width="6.8" height="49.7"/>
	</g>
	<g>
		<g>
			<g>
				<path class="st0" d="M328.1,53h-26.6v7h27.2c8.7,0,15.8,7,15.8,15.6v4.8c0,8.6-7,15.6-15.6,15.6h-40.4v6h39.6
					c12.4,0,22.4-9.9,22.4-22.2v-4.5C350.5,63,340.5,53,328.1,53z"/>
			</g>
		</g>
	</g>
</g>
<g>
	<g>
		<g>
			<g>
				<g>
					<line class="st0" x1="447.5" y1="53" x2="447.5" y2="53"/>
				</g>
			</g>
			<g>
				<g>
					<polygon class="st0" points="486.5,135.9 486.5,135.9 447.7,53 455.8,53 490.5,127.3 494.5,135.8 490.5,144.4 					"/>
				</g>
			</g>
		</g>
		<g>
			<g>
				<g>
					<polygon class="st0" points="513.5,95 494.5,135.7 490.5,144.3 486.5,135.8 486.5,135.8 490.5,127.2 505.6,95 					"/>
				</g>
			</g>
		</g>
		<g>
			<g>
				<g>
					<line class="st0" x1="447.5" y1="53" x2="447.5" y2="53"/>
				</g>
			</g>
		</g>
		<g>
			<g>
				<g>
					<line class="st0" x1="447.5" y1="53" x2="447.5" y2="53"/>
				</g>
			</g>
			<g>
				<g>
					<polygon class="st0" points="486.5,135.9 486.5,135.9 447.7,53 					"/>
				</g>
			</g>
		</g>
	</g>
	<g>
		<g>
			<rect x="447.5" y="95" class="st0" width="74" height="7"/>
		</g>
	</g>
</g>
</svg>
